<mxfile host="app.diagrams.net" agent="Mozilla/5.0 (Windows NT 10.0; Win64; x64) AppleWebKit/537.36 (KHTML, like Gecko) Chrome/128.0.0.0 Safari/537.36" version="24.7.10">
  <diagram name="Page-1" id="Z0cuQBYm2W9VesvwXztY">
    <mxGraphModel dx="993" dy="645" grid="1" gridSize="10" guides="1" tooltips="1" connect="1" arrows="1" fold="1" page="1" pageScale="1" pageWidth="850" pageHeight="1100" math="0" shadow="0">
      <root>
        <mxCell id="0" />
        <mxCell id="1" parent="0" />
        <mxCell id="bVKWAeOByo7b8A0jS7OG-1" value="Splunk Serve" style="sketch=0;outlineConnect=0;fontColor=#232F3E;gradientColor=none;fillColor=#232F3D;strokeColor=none;dashed=0;verticalLabelPosition=bottom;verticalAlign=top;align=center;html=1;fontSize=12;fontStyle=0;aspect=fixed;pointerEvents=1;shape=mxgraph.aws4.traditional_server;" vertex="1" parent="1">
          <mxGeometry x="160" y="170" width="46.15" height="80" as="geometry" />
        </mxCell>
        <mxCell id="bVKWAeOByo7b8A0jS7OG-2" value="Active Directory&lt;div&gt;Splunk Universal Folder&lt;/div&gt;&lt;div&gt;Sysmon&lt;/div&gt;" style="sketch=0;outlineConnect=0;fontColor=#232F3E;gradientColor=none;fillColor=#232F3D;strokeColor=none;dashed=0;verticalLabelPosition=bottom;verticalAlign=top;align=center;html=1;fontSize=12;fontStyle=0;aspect=fixed;pointerEvents=1;shape=mxgraph.aws4.traditional_server;" vertex="1" parent="1">
          <mxGeometry x="160" y="330" width="45" height="78" as="geometry" />
        </mxCell>
        <mxCell id="bVKWAeOByo7b8A0jS7OG-8" value="" style="edgeStyle=orthogonalEdgeStyle;rounded=0;orthogonalLoop=1;jettySize=auto;html=1;" edge="1" parent="1" source="bVKWAeOByo7b8A0jS7OG-3" target="bVKWAeOByo7b8A0jS7OG-5">
          <mxGeometry relative="1" as="geometry" />
        </mxCell>
        <mxCell id="bVKWAeOByo7b8A0jS7OG-15" style="rounded=0;orthogonalLoop=1;jettySize=auto;html=1;dashed=1;dashPattern=1 4;endArrow=none;endFill=0;fillColor=#d5e8d4;strokeColor=#82b366;" edge="1" parent="1" source="bVKWAeOByo7b8A0jS7OG-3" target="bVKWAeOByo7b8A0jS7OG-1">
          <mxGeometry relative="1" as="geometry" />
        </mxCell>
        <mxCell id="bVKWAeOByo7b8A0jS7OG-3" value="Windows Victim&lt;div&gt;&lt;br&gt;&lt;/div&gt;" style="verticalLabelPosition=bottom;html=1;verticalAlign=top;align=center;strokeColor=none;fillColor=#00BEF2;shape=mxgraph.azure.computer;pointerEvents=1;" vertex="1" parent="1">
          <mxGeometry x="360" y="400" width="50" height="45" as="geometry" />
        </mxCell>
        <mxCell id="bVKWAeOByo7b8A0jS7OG-9" value="" style="edgeStyle=orthogonalEdgeStyle;rounded=0;orthogonalLoop=1;jettySize=auto;html=1;" edge="1" parent="1" source="bVKWAeOByo7b8A0jS7OG-4" target="bVKWAeOByo7b8A0jS7OG-5">
          <mxGeometry relative="1" as="geometry" />
        </mxCell>
        <mxCell id="bVKWAeOByo7b8A0jS7OG-4" value="Attacker Machine&lt;div&gt;&lt;br&gt;&lt;/div&gt;" style="verticalLabelPosition=bottom;html=1;verticalAlign=top;align=center;strokeColor=#b85450;fillColor=#f8cecc;shape=mxgraph.azure.computer;pointerEvents=1;" vertex="1" parent="1">
          <mxGeometry x="520" y="242.5" width="50" height="45" as="geometry" />
        </mxCell>
        <mxCell id="bVKWAeOByo7b8A0jS7OG-12" value="" style="edgeStyle=orthogonalEdgeStyle;rounded=0;orthogonalLoop=1;jettySize=auto;html=1;" edge="1" parent="1" source="bVKWAeOByo7b8A0jS7OG-5" target="bVKWAeOByo7b8A0jS7OG-6">
          <mxGeometry relative="1" as="geometry" />
        </mxCell>
        <mxCell id="bVKWAeOByo7b8A0jS7OG-5" value="" style="sketch=0;points=[[0.015,0.015,0],[0.985,0.015,0],[0.985,0.985,0],[0.015,0.985,0],[0.25,0,0],[0.5,0,0],[0.75,0,0],[1,0.25,0],[1,0.5,0],[1,0.75,0],[0.75,1,0],[0.5,1,0],[0.25,1,0],[0,0.75,0],[0,0.5,0],[0,0.25,0]];verticalLabelPosition=bottom;html=1;verticalAlign=top;aspect=fixed;align=center;pointerEvents=1;shape=mxgraph.cisco19.rect;prIcon=l2_switch;fillColor=#FAFAFA;strokeColor=#005073;" vertex="1" parent="1">
          <mxGeometry x="360" y="240" width="50" height="50" as="geometry" />
        </mxCell>
        <mxCell id="bVKWAeOByo7b8A0jS7OG-13" value="" style="edgeStyle=orthogonalEdgeStyle;rounded=0;orthogonalLoop=1;jettySize=auto;html=1;" edge="1" parent="1" source="bVKWAeOByo7b8A0jS7OG-6" target="bVKWAeOByo7b8A0jS7OG-7">
          <mxGeometry relative="1" as="geometry" />
        </mxCell>
        <mxCell id="bVKWAeOByo7b8A0jS7OG-6" value="" style="sketch=0;points=[[0.5,0,0],[1,0.5,0],[0.5,1,0],[0,0.5,0],[0.145,0.145,0],[0.8555,0.145,0],[0.855,0.8555,0],[0.145,0.855,0]];verticalLabelPosition=bottom;html=1;verticalAlign=top;aspect=fixed;align=center;pointerEvents=1;shape=mxgraph.cisco19.rect;prIcon=router;fillColor=#FAFAFA;strokeColor=#005073;" vertex="1" parent="1">
          <mxGeometry x="360" y="140" width="50" height="50" as="geometry" />
        </mxCell>
        <mxCell id="bVKWAeOByo7b8A0jS7OG-7" value="Internet&lt;div&gt;&lt;br&gt;&lt;/div&gt;" style="ellipse;shape=cloud;whiteSpace=wrap;html=1;" vertex="1" parent="1">
          <mxGeometry x="342.5" y="40" width="85" height="50" as="geometry" />
        </mxCell>
        <mxCell id="bVKWAeOByo7b8A0jS7OG-10" style="edgeStyle=orthogonalEdgeStyle;rounded=0;orthogonalLoop=1;jettySize=auto;html=1;entryX=0;entryY=0.5;entryDx=0;entryDy=0;entryPerimeter=0;" edge="1" parent="1" source="bVKWAeOByo7b8A0jS7OG-2" target="bVKWAeOByo7b8A0jS7OG-5">
          <mxGeometry relative="1" as="geometry" />
        </mxCell>
        <mxCell id="bVKWAeOByo7b8A0jS7OG-11" style="edgeStyle=orthogonalEdgeStyle;rounded=0;orthogonalLoop=1;jettySize=auto;html=1;entryX=0;entryY=0.5;entryDx=0;entryDy=0;entryPerimeter=0;" edge="1" parent="1" source="bVKWAeOByo7b8A0jS7OG-1" target="bVKWAeOByo7b8A0jS7OG-5">
          <mxGeometry relative="1" as="geometry" />
        </mxCell>
        <mxCell id="bVKWAeOByo7b8A0jS7OG-14" value="Domain:MyDNS&lt;div&gt;&lt;br&gt;&lt;/div&gt;" style="text;html=1;align=center;verticalAlign=middle;resizable=0;points=[];autosize=1;strokeColor=none;fillColor=none;" vertex="1" parent="1">
          <mxGeometry x="25" y="3" width="110" height="40" as="geometry" />
        </mxCell>
      </root>
    </mxGraphModel>
  </diagram>
</mxfile>
